HIERARCHY
ROOT Hips
{
  OFFSET 1.44925e-005 102.336 -0.101585
  CHANNELS 6 Xposition Yposition Zposition Zrotation Xrotation Yrotation
  JOINT LeftUpLeg
  {
    OFFSET 8.9458 -8.66707 0.101652
    CHANNELS 3 Zrotation Xrotation Yrotation
    JOINT LeftLeg
    {
      OFFSET 0 -44.4227 1.3727
      CHANNELS 3 Zrotation Xrotation Yrotation
      JOINT LeftFoot
      {
        OFFSET -0.253549 -42.0924 -1.46059
        CHANNELS 3 Zrotation Xrotation Yrotation
        JOINT LeftToes
        {
          OFFSET -0.04 -4.41509 8.4991
          CHANNELS 3 Zrotation Xrotation Yrotation
          End Site
          {
            OFFSET 0.08 -0.047448 9.77979
          }
        }
      }
    }
  }
  JOINT Spine
  {
    OFFSET 0 11.8905 0
    CHANNELS 3 Zrotation Xrotation Yrotation
    JOINT Spine1
    {
      OFFSET 0 25.6574 0.127663
      CHANNELS 3 Zrotation Xrotation Yrotation
      JOINT RightShoulder
      {
        OFFSET -8.99 -0.362252 -0.22
        CHANNELS 3 Zrotation Xrotation Yrotation
        JOINT RightArm
        {
          OFFSET -10.2827 -0.00338 0.322123
          CHANNELS 3 Zrotation Xrotation Yrotation
          JOINT RightForeArm
          {
            OFFSET -26.364 0.099144 -1.42434
            CHANNELS 3 Zrotation Xrotation Yrotation
            JOINT RightHand
            {
              OFFSET -22.0324 0.085362 1.02216
              CHANNELS 3 Zrotation Xrotation Yrotation
              End Site
              {
                OFFSET -13.3284 -0.6 1.50291
              }
            }
          }
        }
      }
      JOINT LeftShoulder1
      {
        OFFSET 8.99 -0.362252 -0.22
        CHANNELS 3 Zrotation Xrotation Yrotation
        JOINT LeftArm
        {
          OFFSET 10.2827 -0.00337999 0.322123
          CHANNELS 3 Zrotation Xrotation Yrotation
          JOINT LeftForeArm
          {
            OFFSET 26.2597 0.099144 -1.42434
            CHANNELS 3 Zrotation Xrotation Yrotation
            JOINT LeftHand
            {
              OFFSET 22.0902 0.085362 1.02216
              CHANNELS 3 Zrotation Xrotation Yrotation
              End Site
              {
                OFFSET 13.419 -0.6 1.50291
              }
            }
          }
        }
      }
      JOINT Head
      {
        OFFSET 0 8.73416 0.011341
        CHANNELS 3 Zrotation Xrotation Yrotation
        End Site
        {
          OFFSET -0.29 12.7742 2.51395
        }
      }
    }
  }
  JOINT RightUpLeg
  {
    OFFSET -8.9458 -8.66707 0.101652
    CHANNELS 3 Zrotation Xrotation Yrotation
    JOINT RightLeg
    {
      OFFSET 0 -44.4227 1.3727
      CHANNELS 3 Zrotation Xrotation Yrotation
      JOINT RightFoot
      {
        OFFSET 0.253549 -42.0924 -1.46059
        CHANNELS 3 Zrotation Xrotation Yrotation
        JOINT RightToes
        {
          OFFSET 0.04 -4.41509 8.4991
          CHANNELS 3 Zrotation Xrotation Yrotation
          End Site
          {
            OFFSET -0.08 -0.137448 9.77979
          }
        }
      }
    }
  }
}
MOTION
Frames:	12
Frame Time:	0.0333333
82.7065 99.0673 6.29488 -9.73891 -2.8574 -96.912 -9.18515 -4.95813 2.0663 0.306791 25.2442 22.8308 1.12605 -16.4319 0.173082 -1.29516e-009 8.75257e-006 -1.47836e-008 -4.84238 14.3817 1.3438 -2.30914 -0.311426 0.635798 38.6931 1.79552 0.00605252 35.8646 -21.4759 -2.6032 9.92572 41.7106 4.50079 -7.61719 9.61845 -0.722939 -44.4204 3.51609 -3.37905 -25.9398 -15.959 3.97606 -4.30731 34.8031 -14.6476 5.82328 9.61819 -0.917488 -0.589431 -14.0993 -2.1292 -5.13153 -8.77174 2.97354 -3.44625 75.8791 -12.8509 13.3151 -7.19991 -0.223006 0.0462048 0.000530889 0.662642 
80.1079 99.4017 6.47142 -9.92217 -2.27994 -96.6273 -8.65096 -2.30543 2.27351 -0.154627 23.9117 22.4933 0.949857 -17.3722 0.173149 -1.29516e-009 8.75257e-006 -1.47836e-008 -5.25021 14.7477 0.761724 -1.16308 -0.523864 -0.224266 38.6149 1.79575 0.00474422 35.9113 -19.4558 -3.05772 8.85548 38.4816 7.05982 -7.96135 9.60258 -0.691821 -43.9981 3.47794 -3.3668 -26.3848 -12.8467 2.38115 -2.68978 31.3601 -17.5271 5.82328 9.61819 -0.917488 -0.111844 -12.9373 -1.3775 -3.94038 -13.5896 3.11122 -3.68389 76.5246 -13.1301 12.2121 -8.38954 -0.0980931 0.0462048 0.000530889 0.662642 
77.5607 99.66 6.61701 -10.0679 -1.6379 -96.4122 -8.03228 0.256049 2.68141 -0.465984 22.6943 21.9519 0.625982 -18.4035 0.157405 -1.29516e-009 8.75257e-006 -1.47836e-008 -5.33098 15.2413 0.279441 -0.1456 -0.943608 -0.847652 38.5528 1.79582 0.00331809 36.1534 -17.9107 -3.01641 8.12829 36.1385 8.76742 -8.32262 9.57154 -0.430519 -43.7214 3.45258 -3.35777 -26.3546 -9.92671 1.03018 -1.07781 27.6831 -20.7966 5.82328 9.61819 -0.917488 0.395563 -11.8063 -0.915206 -2.60977 -17.793 3.41852 -3.26197 74.6423 -13.6378 11.7404 -9.91301 0.0492204 0.0462048 0.000530889 0.662642 
75.0651 99.7786 6.72869 -10.2317 -1.08502 -96.2216 -7.56568 2.58738 3.14137 -0.598605 21.9323 21.4175 0.416981 -19.6357 0.150129 -1.29516e-009 8.75257e-006 -1.47836e-008 -5.30592 15.745 -0.0467165 0.683006 -1.19236 -1.24882 38.5515 1.79573 0.00183015 36.4634 -17.1599 -2.47412 7.68985 34.6279 9.76983 -8.36376 9.55941 -0.268343 -43.6103 3.43803 -3.3454 -25.8523 -9.3965 -0.387992 0.298927 26.3732 -24.0134 5.82328 9.61819 -0.917488 0.768684 -11.1341 -0.846037 -1.54449 -21.162 3.49716 -2.59357 70.5826 -14.4324 12.358 -11.9374 0.269902 0.0462048 0.000530889 0.662642 
72.5786 99.8206 6.79823 -10.3474 -0.771058 -95.8743 -7.39113 4.73347 3.39722 -0.600429 21.2807 20.9277 0.486917 -20.546 0.167401 -1.29516e-009 8.75257e-006 -1.47836e-008 -5.3447 16.0653 -0.287776 1.41645 -1.15987 -1.52805 38.6361 1.7955 0.000336433 36.8346 -16.8107 -1.61766 7.45236 33.4748 10.3748 -8.32675 9.57088 -0.423122 -43.4857 3.41713 -3.3223 -25.3451 -11.4332 -2.00204 1.49327 27.7816 -27.0091 5.82328 9.61819 -0.917488 1.06555 -10.9048 -1.11288 -1.01513 -23.7628 2.85596 -2.07166 64.933 -15.5765 12.7379 -13.4364 0.443931 0.0462048 0.000530889 0.662642 
70.1085 99.8211 6.84307 -10.3852 -0.592827 -95.4308 -7.40245 6.84512 3.43421 -0.500737 20.4101 20.5894 0.738096 -21.1444 0.204382 -1.29516e-009 8.75257e-006 -1.47836e-008 -5.17821 16.2692 -0.465924 1.94878 -0.973799 -1.66275 38.7542 1.79512 -0.00141416 37.2629 -16.5083 -0.679297 7.29943 32.6639 10.7921 -8.45272 9.57383 -0.554278 -43.3012 3.39002 -3.29554 -25.1282 -12.8949 -3.80905 2.50553 28.8887 -29.5391 5.82328 9.61819 -0.917488 1.36749 -10.9057 -1.61759 -0.761206 -25.7021 1.6907 -1.7208 58.2412 -16.3965 12.2889 -14.1914 0.499893 0.0462048 0.000530889 0.662642 
67.6079 99.6343 6.8775 -10.4677 -0.51525 -95.1702 -7.59316 8.93307 3.47885 -0.372266 19.7459 20.551 0.848557 -22.1723 0.232093 -1.29516e-009 8.75257e-006 -1.47836e-008 -4.73654 16.4594 -0.49167 2.01892 -0.660365 -1.56329 38.7765 1.79461 -0.000557357 37.7339 -16.1371 0.309752 7.16453 32.3546 11.0825 -8.53843 9.56042 -0.401535 -43.1926 3.37417 -3.27986 -25.0688 -13.5413 -5.75606 3.20061 29.4896 -31.3393 5.82328 9.61819 -0.917488 1.62225 -11.0611 -2.27503 -0.569984 -26.8452 0.589658 -1.41433 50.8625 -15.9118 12.2636 -14.7823 0.560357 0.0462048 0.000530889 0.662642 
64.9587 99.2379 6.8896 -10.6416 -0.647864 -95.026 -7.99502 11.0402 3.65914 -0.319463 19.4189 20.5786 0.643655 -23.6275 0.223405 -1.29516e-009 8.75257e-006 -1.47836e-008 -4.30792 16.4792 -0.41502 1.78232 -0.0967907 -1.34097 38.6606 1.79397 0.0119964 38.1837 -15.5305 1.37762 7.04331 32.3351 11.3119 -8.39134 9.55357 -0.204089 -43.2177 3.37457 -3.27693 -25.0994 -13.5595 -7.68423 3.51363 29.7079 -32.2501 5.82328 9.61819 -0.917488 1.74324 -11.3255 -2.98108 -0.602639 -26.9846 -0.504594 -1.13128 42.9086 -14.5312 13.1025 -15.4435 0.687337 0.0462048 0.000530889 0.662642 
62.131 98.8241 6.84843 -10.7125 -0.974406 -94.6267 -8.42903 13.1791 3.85734 -0.314726 18.9791 20.2675 0.245895 -24.6962 0.175813 -1.29516e-009 8.75257e-006 -1.47836e-008 -4.0264 16.1144 -0.392901 1.67126 0.713859 -1.21925 38.5468 1.79321 0.0237757 38.4347 -14.5993 2.34553 6.93871 32.2311 11.5719 -8.17418 9.55998 -0.156298 -43.3123 3.3807 -3.27524 -25.1653 -12.8563 -9.39133 3.40226 29.5715 -32.1868 5.82328 9.61819 -0.917488 1.72475 -11.5263 -3.69799 -0.942821 -26.2557 -2.22287 -0.969027 34.4949 -13.6683 13.5198 -15.9623 0.776138 0.0462048 0.000530889 0.662642 
59.1129 98.4227 6.73211 -10.5401 -1.33178 -93.9391 -8.72448 15.2026 4.01016 -0.236883 18.5464 19.6171 -0.336531 -25.3812 0.0878923 -1.29516e-009 8.75257e-006 -1.47836e-008 -3.75758 15.365 -0.432231 1.69107 1.51253 -1.19194 38.5588 1.79233 0.0256215 38.3737 -13.8065 3.00439 6.89464 32.1326 11.7414 -8.07486 9.56132 -0.0882282 -43.4665 3.38847 -3.268 -25.0835 -11.0859 -10.7504 2.86664 29.0608 -31.1613 5.82328 9.61819 -0.917488 1.62459 -11.5291 -4.49898 -1.34018 -25.1008 -4.33359 -0.802705 26.4396 -13.7032 13.1682 -16.304 0.788544 0.0462048 0.000530889 0.662642 
55.8168 97.8757 6.54735 -10.2435 -1.66998 -93.2453 -8.921 17.0668 4.26043 -0.0688669 18.6441 18.7932 -1.35528 -26.3347 -0.0824643 -1.29516e-009 8.75257e-006 -1.47836e-008 -3.44758 14.3805 -0.451295 1.59349 2.067 -1.12621 38.5952 1.79133 0.0306399 38.1626 -13.9659 3.39645 7.01515 32.6271 11.467 -8.05274 9.55173 0.0848012 -43.7101 3.40294 -3.26096 -24.7748 -8.23564 -11.629 1.99451 28.1655 -29.3382 5.82328 9.61819 -0.917488 1.51335 -11.3551 -5.38429 -1.637 -23.8806 -4.78354 -0.176047 20.3493 -14.5485 13.3869 -16.8165 0.865418 0.0462048 0.000530889 0.662642 
52.2297 97.2095 6.30021 -9.88344 -2.05576 -92.4874 -8.99426 18.8185 4.63927 0.162434 19.2395 17.5758 -2.76028 -27.2693 -0.338177 -1.29516e-009 8.75257e-006 -1.47836e-008 -3.2142 13.2486 -0.511338 1.55194 2.3766 -1.12828 38.5039 1.79023 0.0343837 38.0222 -15.3728 3.60801 7.34238 34.0415 10.5757 -8.06866 9.54553 0.164807 -44.0056 3.42514 -3.26157 -24.4021 -4.64011 -11.8455 0.849286 26.735 -26.8979 5.82328 9.61819 -0.917488 1.42351 -10.9856 -6.19706 -1.88939 -22.7111 -3.26798 0.51714 17.2708 -15.6995 14.1519 -17.4111 0.998028 0.0462048 0.000530889 0.662642 
